HIERARCHY
ROOT Hips
{
	OFFSET -5.657324 109.473633 -4.910739
	CHANNELS 6 Xposition Yposition Zposition Xrotation Yrotation Zrotation
	JOINT Chest
	{
		OFFSET -0.154191 13.425072 -2.428540
		CHANNELS 3 Xrotation Yrotation Zrotation
		JOINT Chest2
		{
			OFFSET -3.374712 20.994637 2.627408
			CHANNELS 3 Xrotation Yrotation Zrotation
			JOINT Chest3
			{
				OFFSET 1.398920 14.856049 0.400680
				CHANNELS 3 Xrotation Yrotation Zrotation
				JOINT Neck
				{
					OFFSET -0.280928 17.271484 0.482787
					CHANNELS 3 Xrotation Yrotation Zrotation
					JOINT Head
					{
						OFFSET -1.939582 10.271362 0.751618
						CHANNELS 3 Xrotation Yrotation Zrotation
						End Site
						{
							OFFSET -1.910382 10.281464 0.685392
						}
					}
				}
				JOINT LeftCollar
				{
					OFFSET 3.474240 13.212784 3.893131
					CHANNELS 3 Xrotation Yrotation Zrotation
					JOINT LeftUpArm
					{
						OFFSET 16.949116 2.816635 -3.646004
						CHANNELS 3 Xrotation Yrotation Zrotation
						JOINT LeftLowArm
						{
							OFFSET 25.724682 19.643005 9.597938
							CHANNELS 3 Xrotation Yrotation Zrotation
							JOINT LeftHand
							{
								OFFSET 11.332558 26.865982 7.123120
								CHANNELS 3 Xrotation Yrotation Zrotation
								End Site
								{
									OFFSET 2.476784 5.871719 1.556795
								}
							}
						}
					}
				}
				JOINT RightCollar
				{
					OFFSET -4.831909 13.115723 2.537564
					CHANNELS 3 Xrotation Yrotation Zrotation
					JOINT RightUpArm
					{
						OFFSET -16.993118 -1.879929 -4.024445
						CHANNELS 3 Xrotation Yrotation Zrotation
						JOINT RightLowArm
						{
							OFFSET -9.429905 -14.779373 28.851032
							CHANNELS 3 Xrotation Yrotation Zrotation
							JOINT RightHand
							{
								OFFSET 6.363342 25.499588 14.499441
								CHANNELS 3 Xrotation Yrotation Zrotation
								End Site
								{
									OFFSET 1.390768 5.573181 3.169006
								}
							}
						}
					}
				}
			}
		}
	}
	JOINT LeftUpLeg
	{
		OFFSET 7.276587 1.307076 6.764760
		CHANNELS 3 Xrotation Yrotation Zrotation
		JOINT LeftLowLeg
		{
			OFFSET -29.849867 2.117157 36.721809
			CHANNELS 3 Xrotation Yrotation Zrotation
			JOINT LeftFoot
			{
				OFFSET -18.516775 -36.423790 18.193501
				CHANNELS 3 Xrotation Yrotation Zrotation
				JOINT LeftToe
				{
					OFFSET -12.372261 3.165932 19.911385
					CHANNELS 3 Xrotation Yrotation Zrotation
					End Site
					{
						OFFSET -6.454075 17.128334 14.984131
					}
				}
			}
		}
	}
	JOINT RightUpLeg
	{
		OFFSET -7.276587 -1.307274 -6.764728
		CHANNELS 3 Xrotation Yrotation Zrotation
		JOINT RightLowLeg
		{
			OFFSET 0.361702 -47.364948 0.664534
			CHANNELS 3 Xrotation Yrotation Zrotation
			JOINT RightFoot
			{
				OFFSET 8.095632 -42.672379 -10.682135
				CHANNELS 3 Xrotation Yrotation Zrotation
				JOINT RightToe
				{
					OFFSET -13.709139 -16.901361 9.271462
					CHANNELS 3 Xrotation Yrotation Zrotation
					End Site
					{
						OFFSET -19.968054 -2.577332 12.417341
					}
				}
			}
		}
	}
}
MOTION
Frames: 8
Frame Time: 0.033333
3.057090 105.269440 -1.111722 22.053508 40.137088 -9.942570 -19.611780 -1.640401 -5.050451 -1.740328 -4.112134 7.879030 6.013857 -23.783866 -5.993225 -3.143482 9.653730 -6.078463 -0.000000 -0.000000 0.000002 14.849688 0.170052 -32.762737 24.429263 -26.098962 -68.915775 32.854958 0.339923 -17.421320 -0.000003 -0.000000 0.000003 7.589378 -21.583540 20.088686 44.735215 -18.025988 15.830353 77.796387 -10.325649 -0.118870 0.000002 0.000004 0.000001 52.850091 34.810141 37.657555 -24.964697 15.237425 -25.510376 -8.160174 -25.588207 7.747650 -0.000002 0.000007 0.000005 -10.580283 1.839313 -3.775021 -5.297829 -3.353270 3.384478 0.186110 9.409567 2.096250 0.000000 0.000001 0.000001 
3.052529 105.270554 -1.112135 22.088502 40.236839 -10.002434 -19.452579 -1.660422 -4.915427 -2.455681 -4.138752 7.393781 6.769056 -24.084850 -5.591107 -3.068275 9.761935 -6.092059 -0.000001 -0.000000 0.000001 14.875317 0.207411 -32.745112 24.499475 -25.948700 -69.006624 32.984626 0.183601 -16.956513 0.000002 0.000002 0.000003 7.651885 -21.360788 20.172311 44.627821 -17.885463 15.657768 77.777311 -10.463185 0.056842 0.000001 -0.000002 -0.000000 52.598979 34.554914 37.541715 -24.889459 15.202749 -25.227121 -7.974616 -25.375080 7.847431 0.000002 0.000005 0.000002 -10.504653 1.857636 -3.676918 -5.395657 -3.328079 3.363649 -0.364582 9.559488 1.530131 0.000001 0.000001 0.000000 
3.048856 105.269829 -1.109230 22.289431 39.891276 -9.691086 -19.913601 -1.558260 -5.488515 -1.871654 -4.093316 7.758618 6.340010 -23.816105 -5.756774 -2.674306 9.701708 -5.946667 -0.000000 -0.000002 0.000000 14.809638 0.339720 -32.918387 24.522932 -25.397384 -69.185534 33.040729 -0.145998 -16.794182 0.000001 0.000002 0.000003 7.504785 -21.618189 20.104150 44.784119 -18.116073 15.847641 77.866622 -9.982560 -0.203046 0.000002 0.000005 0.000005 52.475380 34.332222 37.505901 -25.017853 15.038063 -25.317887 -8.108655 -25.163646 7.615946 0.000005 0.000001 0.000002 -10.729442 1.907514 -3.971121 -5.259883 -3.166291 3.273290 -0.635639 9.863294 1.509271 0.000001 0.000005 -0.000001 
3.044928 105.273560 -1.110497 22.146152 39.918508 -9.629827 -19.593438 -1.590363 -5.249452 -2.507907 -4.110927 7.293658 6.989904 -23.959166 -5.397746 -2.826336 9.792111 -6.058773 -0.000000 0.000001 0.000001 14.763725 0.422728 -33.166774 24.426573 -25.226704 -69.136008 33.049800 -0.631164 -16.491908 0.000004 -0.000001 0.000003 7.473714 -21.286829 20.156781 44.781374 -18.268666 15.871374 77.982476 -9.818796 0.045076 0.000003 -0.000002 0.000001 52.421350 34.156028 37.442298 -24.824360 15.013804 -25.117765 -8.485650 -25.193190 7.376342 -0.000000 0.000003 0.000003 -10.751259 1.902403 -4.105369 -5.059526 -3.184434 3.532819 -0.480677 9.774031 1.597352 -0.000000 0.000003 0.000001 
3.041649 105.279129 -1.112998 22.008360 40.182638 -9.703654 -19.472729 -1.612668 -5.081653 -2.483054 -4.134108 7.350456 7.022316 -24.073741 -5.465294 -2.798299 9.779011 -5.991850 -0.000000 0.000001 0.000000 14.759665 0.015387 -32.983390 24.335088 -25.263999 -69.164995 32.967329 -0.876354 -16.563053 0.000001 0.000000 0.000001 7.387637 -21.650103 20.258049 44.807076 -18.492626 15.905532 78.292082 -9.559121 0.154246 -0.000001 0.000000 0.000000 52.364960 33.985167 37.405818 -24.746790 15.025489 -24.864525 -8.219371 -25.312042 7.652120 -0.000000 0.000003 0.000003 -10.739688 1.917699 -4.238128 -4.803829 -3.093073 4.036784 -0.604037 9.507964 1.401251 0.000000 0.000001 0.000000 
3.036698 105.283188 -1.112156 21.730728 40.013017 -9.589160 -19.287604 -1.617374 -4.979585 -2.483124 -4.075253 7.267762 6.950932 -24.073760 -5.413707 -2.913869 9.752986 -6.010076 -0.000001 0.000003 0.000001 14.677252 0.197029 -33.047614 24.223561 -24.866601 -69.461740 33.056435 -1.267597 -16.680724 0.000001 -0.000001 0.000001 7.343690 -21.450113 20.316838 44.830527 -18.796484 16.049888 78.214313 -9.212398 0.096398 0.000004 0.000000 0.000000 52.581388 34.168226 37.517488 -24.687645 15.005668 -24.784016 -8.073267 -25.307394 7.753947 0.000001 0.000005 0.000004 -10.589548 1.911605 -4.153943 -4.774147 -3.040979 3.977349 -0.326756 9.547495 1.752186 0.000000 -0.000000 0.000001 
3.023693 105.286545 -1.111320 21.471432 39.835664 -9.546250 -19.085051 -1.630883 -4.878151 -3.088885 -4.035423 6.787097 7.684794 -23.903879 -4.939008 -3.238160 9.675666 -5.893753 -0.000001 0.000003 0.000001 14.684019 0.643312 -33.031731 24.374800 -25.242316 -69.113065 33.338071 -1.177551 -16.993053 0.000002 -0.000001 0.000004 7.449429 -21.624905 20.371845 44.669424 -18.432514 15.749518 77.998315 -9.500995 -0.032074 0.000002 0.000001 0.000001 52.603043 34.346644 37.599338 -24.754233 14.876415 -24.743924 -7.834769 -25.179578 7.879491 -0.000000 0.000006 0.000005 -10.380784 1.907471 -3.847382 -4.681075 -2.932390 3.973620 -0.495189 9.783673 1.713619 0.000000 0.000001 0.000000 
3.013375 105.289932 -1.114231 21.558135 39.879367 -9.569183 -19.411906 -1.611628 -5.131281 -2.471870 -4.027032 7.231967 7.184831 -23.926059 -5.218023 -3.189322 9.648840 -5.869486 0.000000 -0.000000 0.000001 14.734965 0.835833 -32.991627 24.456428 -25.175138 -69.198737 33.360973 -1.023655 -17.139672 0.000004 0.000004 -0.000000 7.490355 -21.991788 20.428806 44.508839 -18.222076 15.616582 78.318207 -9.611574 0.202455 0.000003 -0.000001 -0.000001 52.528642 34.317910 37.564107 -24.730624 14.840119 -24.710935 -7.855964 -25.116638 7.823068 0.000001 0.000002 -0.000001 -10.436830 1.911552 -3.917771 -4.825381 -2.983349 3.916261 -0.475814 9.666770 1.627699 0.000000 0.000001 0.000000 
